<svg version="1.0" xmlns="http://www.w3.org/2000/svg" width="1504" height="362"><g fill="#ff6a00"><path d="M67.5 269.2c-15.9-5.5-27.9-18.2-32-33.7-2.2-8.6-2.2-99.2 0-107.8 4.7-18.1 19.7-32.2 38-35.7 3.9-.7 17.3-1 38.7-.8l32.8.3-7.4 10.5-7.4 10.5-22.9 7c-25.9 7.8-28.8 9-33.1 13.9-4.9 5.6-5.4 10.2-5 51.3.4 49.7-1.7 46.3 34.4 57.3 12.6 3.8 23.8 7.4 25 7.9 1.1.5 5.3 5.4 9.2 11l7.1 10.1h-36.2c-31.7-.1-36.8-.3-41.2-1.8zM213 270.6c0-.3 3.2-5 7-10.5l7.1-10 8.7-2.6c20.8-6.3 35-10.7 38.9-12.1 5.2-1.9 10.8-8 12.3-13.4.7-2.7 1-16.9.8-42.8l-.3-38.7-2.7-4.6c-1.5-2.5-4-5.4-5.5-6.4-1.5-1.1-13.9-5.3-27.5-9.4l-24.7-7.6-7.5-10.5-7.4-10.5 33.4-.3c36.5-.3 41.5.3 51.5 5.4 10.9 5.5 21.3 18.1 24.3 29.6 1.5 5.6 1.7 12.1 1.4 57.8l-.3 51.5-3.7 7.8c-5 10.5-13 18.5-23.5 23.5l-7.8 3.7-37.2.3c-20.5.2-37.3.1-37.3-.2zM621.7 266c-4.5-1.2-11.1-4.4-15.3-7.6-1.7-1.3-3.4-2.4-3.7-2.4-.4 0-.7 1.8-.7 4v4h-21V98h21v28c0 15.4.2 28 .5 28s2.5-1.5 4.9-3.4c7.1-5.4 12.8-7.1 23.1-7 7.8 0 9.8.4 15 2.9 7.6 3.6 14.3 10.4 18.1 18l2.9 6 .3 32.3c.3 34.9 0 37.8-5.3 46.2-3.3 5.3-11 11.9-17 14.6-6.1 2.8-16.7 3.9-22.8 2.4zm11.1-20.6c4.9-2 9-6 11.3-10.9 1.7-3.6 1.9-6.8 1.9-29.6 0-25.3 0-25.5-2.5-30.6-8-15.9-30.3-15.8-38.8.2-2 3.7-2.2 5.8-2.5 26.7-.4 25.4.4 31.5 4.7 37.6 5.4 7.4 16.9 10.4 25.9 6.6zM707.5 265.7c-15.1-4-25.5-15-28.5-30.3-3-15.4 5.8-32.2 20.8-39.6l6.7-3.3 20.2-.3 20.3-.4v-6.1c0-8.2-1.5-13-5.2-17.3-5-5.7-9.9-7.7-17.9-7.2-8.8.5-14.2 4-17.9 11.5l-2.5 5.2h-10.3l-10.2.1.6-2.7c2.1-8.7 9.8-19.5 17.8-24.9 23.7-16 55.3-5 64.6 22.5 1.9 5.7 2 8.4 2 48.6V264h-21v-9.1l-3.7 3c-9.5 7.5-24.3 10.8-35.8 7.8zm22.9-18.9c2.5-.8 5.9-3.1 8.8-5.9 5.8-5.8 7.8-11.9 7.8-24.1V208h-14.7c-8.2 0-16.5.5-18.6 1.1-8.7 2.4-14.5 11.5-13.4 21.1.8 6.6 4 11.2 10.2 14.9 5.6 3.2 12.6 3.8 19.9 1.7zM824 265.4c-5.8-1.6-12.8-5.2-15-7.8-2.1-2.6-3-1.8-3 2.4v4h-22V98h22v56.1l5.5-3.9c19.6-14 47.6-5.8 56.7 16.6 2.2 5.6 2.3 6.5 2.3 38.2v32.5l-3.1 6.5c-5.5 11.6-13.5 18.5-24.9 21.5-7.2 1.8-11.3 1.8-18.5-.1zm15.8-21.7c2.3-1.4 5.4-4.8 6.9-7.4l2.8-4.8V205c0-24-.2-26.8-1.9-30-8.7-16.5-31-16.8-39.1-.7-2.5 5-2.5 5.3-2.5 30.4 0 27.6.4 29.9 5.8 35.7 4.5 4.8 9.8 6.7 17.3 6.4 5.2-.3 7.5-.9 10.7-3.1zM910 265.5c-7.5-2.2-13-5.6-18.3-11.5-6.5-7.2-9.1-14.4-9.2-25 0-7.7.3-9.2 3.3-15.2 4-8.3 11.9-15.8 20-18.9 5.1-2.1 7.7-2.4 25.6-2.7l19.9-.4-.6-7.9c-.6-9.5-3.7-15.5-9.8-19.6-4.8-3.2-13.6-4.2-19.4-2.3-4.8 1.6-12.1 8.8-13 12.9l-.7 3.1h-21l.6-2.7c2.3-9.5 10.7-20.6 19.7-26 16.7-10 36.9-7.8 51.1 5.5 5.9 5.5 9.4 11.1 11.9 19.3 1.7 5.5 1.9 9.7 1.9 48V264h-21v-4c0-2.2-.3-4-.6-4s-2 1.1-3.8 2.5c-1.7 1.3-5.8 3.6-9 5.1-7.3 3.3-19.4 4.2-27.6 1.9zm26-19.6c6-2.7 8.8-5.4 11.6-11.4 2-4.3 2.4-6.5 2.4-15.7V208h-14.2c-15.8 0-20.3.8-24.8 4.7-11.6 9.7-8.3 28.5 6 34.2 4.4 1.7 14.1 1.2 19-1zM1070 266.3c-9.8-1.6-19-6.3-26.7-13.6-6.4-6.1-10.4-12.2-13.5-20.7-2.3-6.4-2.3-7-2.3-49.5 0-42.4 0-43.1 2.3-49.4 6.7-18.6 22.2-31.4 41.4-34.2 19.8-2.9 41.1 7.9 50.5 25.7 3.5 6.6 6.3 15.9 6.3 21.1v3.3H1107.3l-1.2-5.8c-2.8-14.2-13.7-23.3-28.1-23.4-11-.1-21 5.9-26.3 15.7-2.1 3.9-2.2 5.1-2.5 45.9l-.3 42 3.1 6.2c5.1 10.5 13.6 15.7 25.5 15.8 14.7.1 25.4-8.7 28.6-23.4l1.1-5h20.8v2.8c0 9.6-6.4 23.6-14.5 31.7-11.6 11.6-28.5 17.3-43.5 14.8zM1210.5 265.6c-15.8-3.8-28.1-15.9-32-31.4-1.3-5.1-1.6-10.9-1.3-32 .3-24.1.5-26.1 2.6-31.5 14.1-35 62.7-36.9 79.4-3l3.3 6.8v61l-3.2 6.6c-8.9 18.1-29.7 28.2-48.8 23.5zm19.4-22.5c5-2.6 9.7-8.1 11-12.8.6-2.2 1.1-13.6 1.1-26.3 0-25.6-.5-27.6-7.7-34.1-10.4-9.4-27-6.2-33.4 6.4-1.9 3.5-2 5.7-1.7 29.7l.3 25.8 3 4.3c5.9 8.4 18.4 11.5 27.4 7zM1308.7 266c-10.4-2.7-20.6-11-25.5-20.9l-2.7-5.6-.3-48.2-.3-48.3h21.1v42.8c0 27.2.4 44.1 1.1 46.6 1.7 6 8.1 12.3 14.7 14.2 4.7 1.4 6.4 1.5 11 .4 7.3-1.6 14.3-8.3 16-15.2.8-3.2 1.2-17.8 1.2-46.7V143h21v121h-21v-9.2l-3.9 3.1c-9 7.2-22.6 10.5-32.4 8.1zM1411 265.6c-14.9-4.1-25.2-15.1-27.9-30-1.3-7.3-1.4-52.9-.2-60.8 4.6-27.5 36-40.8 58.6-24.6l5.5 3.9V98h22v166h-22v-4c0-4.2-.9-5-3-2.4-2.4 2.7-10.1 6.7-15.9 8-6.8 1.7-11.2 1.7-17.1 0zm22.8-20.2c4.9-2 9-6 11.3-10.9 1.7-3.6 1.9-6.8 1.9-29.6 0-25.3 0-25.5-2.5-30.6-8-15.9-30.3-15.8-38.8.2-2 3.7-2.2 5.9-2.5 26.6-.4 25.4.4 31.6 4.7 37.7 5.4 7.4 16.9 10.4 25.9 6.6zM368.5 261.3c.3-1.6 10.2-38.8 21.9-82.8l21.2-80 13.1-.3 13.1-.3 1.5 5.3c.9 2.9 10.6 39.5 21.7 81.3s20.3 76.8 20.6 77.8c.5 1.5-.4 1.7-10 1.7h-10.5l-1.1-3.7c-.6-2.1-3.2-11.9-5.8-21.8l-4.8-18-24.5-.3-24.4-.2-3.9 14.7c-2.1 8.2-4.8 18.1-5.9 22.1l-1.9 7.2h-21l.7-2.7zm74.5-63.5c0-2-17.1-66.3-17.9-67-.6-.7-2.6 6.2-14.7 52l-4.2 16.2h18.4c13.6 0 18.4-.3 18.4-1.2zM494 181V98h21v166h-21v-83zM537 203.5V143h22v121h-22v-60.5zM1139 181V98h22v166h-22v-83z"/><path d="M131 180.5V170h96v21h-96v-10.5zM537 109V98h22v22h-22v-11z"/></g></svg>