<?xml version="1.0" standalone="no"?>
<!DOCTYPE svg PUBLIC "-//W3C//DTD SVG 20010904//EN"
 "http://www.w3.org/TR/2001/REC-SVG-20010904/DTD/svg10.dtd">
<svg version="1.0" xmlns="http://www.w3.org/2000/svg"
 width="300.000000pt" height="137.000000pt" viewBox="0 0 300.000000 137.000000"
 preserveAspectRatio="xMidYMid meet">

<g transform="translate(0.000000,137.000000) scale(0.100000,-0.100000)"
fill="#000000" stroke="none">
<path d="M1507 1352 c-43 -47 1 -110 58 -84 48 22 28 101 -26 102 -9 0 -23 -8
-32 -18z"/>
<path d="M335 1020 l-340 -340 340 -340 c187 -187 347 -340 355 -340 20 0 680
660 680 680 0 20 -661 680 -680 680 -8 0 -168 -153 -355 -340z m380 190 c19
-20 18 -22 -71 -113 -49 -50 -90 -94 -92 -96 -1 -3 -14 6 -28 20 l-25 25 93
92 c51 50 96 92 99 92 3 0 14 -9 24 -20z m97 -97 c10 -9 18 -21 18 -27 0 -6
-40 -52 -90 -101 l-89 -89 -26 24 -26 24 93 93 c51 51 95 93 97 93 2 0 13 -7
23 -17z m106 -106 l22 -23 -95 -94 -94 -94 -26 24 -26 24 93 93 c51 51 95 93
99 93 3 0 15 -10 27 -23z m-423 -13 c19 -20 16 -43 -7 -58 -35 -22 -74 27 -48
59 16 19 35 19 55 -1z m-100 -78 c17 -12 18 -18 7 -40 -12 -28 -40 -34 -60
-14 -23 23 -7 68 23 68 6 0 20 -6 30 -14z m699 -83 l96 -97 -22 -23 -22 -24
-98 98 -98 97 22 23 c12 13 22 23 24 23 1 0 45 -44 98 -97z m-500 64 c21 -16
18 -45 -6 -61 -35 -22 -74 27 -48 59 15 18 31 19 54 2z m21 -247 c-10 -11 -21
-20 -25 -20 -3 0 -49 40 -101 89 l-94 89 25 26 24 27 95 -95 c94 -94 95 -95
76 -116z m-315 165 c15 -19 4 -52 -21 -60 -38 -12 -65 35 -37 63 16 16 43 15
58 -3z m700 -80 c93 -93 94 -94 75 -115 -10 -11 -23 -20 -29 -20 -6 0 -52 41
-103 92 l-93 92 22 23 c12 13 24 23 27 23 4 0 49 -43 101 -95z m-305 59 c19
-20 16 -43 -7 -58 -38 -23 -78 35 -42 61 23 17 29 16 49 -3z m-182 -245 l-21
-22 -39 31 c-21 17 -65 58 -97 91 l-60 61 24 25 24 26 95 -96 96 -95 -22 -21z
m-319 165 c9 -8 16 -19 16 -24 0 -13 -30 -40 -44 -40 -31 0 -47 45 -24 68 16
16 33 15 52 -4z m699 -72 c48 -48 87 -92 87 -98 0 -6 -9 -19 -20 -29 -21 -19
-22 -18 -115 75 l-95 94 22 23 c12 13 24 23 27 23 4 0 46 -39 94 -88z m361 36
c8 -14 6 -22 -10 -39 -18 -17 -25 -19 -43 -10 -11 7 -21 20 -21 29 0 41 52 55
74 20z m-839 -228 c-10 -11 -23 -20 -29 -20 -6 0 -52 40 -101 90 l-89 89 24
26 24 26 95 -95 c94 -94 95 -95 76 -116z m315 155 c15 -18 10 -45 -12 -59 -14
-8 -22 -6 -38 9 -18 19 -19 22 -4 43 18 25 36 28 54 7z m424 -27 c16 -26 -26
-68 -52 -52 -22 14 -27 41 -11 60 15 19 49 14 63 -8z m-574 -173 l-95 -95 -25
25 -25 25 95 95 95 95 25 -25 25 -25 -95 -95z m250 100 c15 -18 10 -45 -12
-59 -14 -8 -22 -6 -40 11 -21 22 -21 23 -3 43 21 24 38 25 55 5z m224 -27 c8
-14 6 -22 -10 -39 -18 -17 -25 -19 -43 -10 -11 7 -21 20 -21 29 0 41 52 55 74
20z m-374 -173 l-95 -95 -25 25 -25 25 95 95 95 95 25 -25 25 -25 -95 -95z
m248 103 c19 -19 14 -56 -8 -63 -39 -12 -66 35 -38 63 15 15 31 15 46 0z
m-148 -203 l-95 -95 -25 25 -25 25 95 95 95 95 25 -25 25 -25 -95 -95z"/>
<path d="M2775 1350 c-152 -22 -247 -148 -232 -307 18 -185 171 -271 400 -223
l57 11 0 140 0 139 -96 0 -95 0 3 -37 c3 -38 3 -38 51 -41 l48 -3 -3 -66 c-3
-63 -5 -67 -31 -76 -94 -31 -214 48 -232 153 -27 157 96 265 262 231 31 -6 58
-9 60 -7 2 2 6 20 10 39 5 34 4 36 -28 41 -75 11 -126 13 -174 6z"/>
<path d="M1810 1144 l0 -206 -31 -30 c-27 -28 -34 -30 -74 -25 -44 6 -44 6
-51 -29 -3 -19 -3 -38 1 -42 4 -4 37 -7 73 -7 79 0 125 22 157 75 18 32 20 55
23 253 l3 217 -50 0 -51 0 0 -206z"/>
<path d="M2040 1153 c0 -221 8 -254 69 -306 97 -81 268 -49 323 60 21 45 23
62 26 246 l4 197 -51 0 -51 0 0 -185 c0 -136 -4 -195 -14 -219 -42 -101 -181
-82 -206 29 -5 22 -10 115 -10 208 l0 167 -45 0 -45 0 0 -197z"/>
<path d="M1490 1005 l0 -195 50 0 50 0 0 195 0 195 -50 0 -50 0 0 -195z"/>
<path d="M1480 680 c0 -7 258 -10 755 -10 497 0 755 3 755 10 0 7 -258 10
-755 10 -497 0 -755 -3 -755 -10z"/>
<path d="M2080 301 c0 -101 4 -152 11 -157 7 -4 16 0 20 9 9 14 12 14 37 0 32
-18 67 -13 102 15 18 14 24 32 28 75 4 52 2 58 -26 87 -34 34 -74 39 -110 14
l-22 -15 0 60 c0 54 -2 61 -20 61 -19 0 -20 -7 -20 -149z m142 12 c26 -23 25
-96 -2 -123 -43 -43 -100 -9 -100 60 0 67 58 103 102 63z"/>
<path d="M2952 395 c2 -46 1 -54 -12 -49 -46 21 -79 16 -110 -14 -26 -26 -30
-38 -30 -82 0 -44 4 -56 29 -81 32 -32 67 -37 97 -14 25 19 34 19 34 0 0 -8 7
-15 15 -15 13 0 15 24 15 155 0 151 -1 155 -21 155 -19 0 -21 -5 -17 -55z
m-20 -82 c24 -21 25 -99 1 -125 -37 -41 -98 -4 -98 60 0 68 54 104 97 65z"/>
<path d="M1470 429 c0 -6 21 -74 46 -150 37 -112 49 -139 64 -139 13 0 24 15
38 53 59 160 84 238 79 243 -18 18 -39 -16 -75 -123 -22 -65 -42 -111 -45
-103 -3 8 -21 62 -39 120 -24 76 -38 106 -50 108 -10 2 -18 -2 -18 -9z"/>
<path d="M1739 331 c-24 -25 -29 -38 -29 -79 0 -59 25 -97 71 -107 42 -9 99 2
99 20 0 11 -10 13 -44 9 -39 -6 -48 -3 -71 20 -39 40 -29 51 53 54 l72 3 0 30
c0 74 -95 106 -151 50z m105 -23 c22 -31 12 -38 -49 -38 -48 0 -54 2 -48 18
17 48 70 59 97 20z"/>
<path d="M1992 344 c-12 -8 -22 -10 -22 -5 0 6 -7 11 -15 11 -13 0 -15 -16
-13 -102 2 -84 6 -103 18 -103 12 0 16 16 18 75 3 78 13 100 43 100 12 0 19 7
19 20 0 24 -18 26 -48 4z"/>
<path d="M2628 344 c-16 -8 -28 -10 -28 -4 0 5 -7 10 -15 10 -12 0 -15 -18
-15 -106 0 -95 2 -105 18 -102 14 3 18 16 20 78 3 77 18 110 51 110 37 -1 46
-18 51 -102 4 -65 8 -83 20 -83 12 0 15 16 15 88 0 81 -2 90 -24 108 -28 23
-56 24 -93 3z"/>
<path d="M2330 270 c0 -73 3 -83 25 -105 27 -28 62 -32 91 -10 24 18 35 19 32
3 -2 -7 4 -13 12 -13 12 0 16 19 18 103 3 97 2 102 -18 102 -18 0 -20 -6 -20
-70 0 -57 -4 -74 -20 -90 -48 -48 -80 -14 -80 86 0 67 -2 74 -20 74 -18 0 -20
-7 -20 -80z"/>
</g>
</svg>
