<svg xmlns="http://www.w3.org/2000/svg" viewBox="0 0 354.33 88.67"><g data-name="Ebene 2"><g data-name="Ebene 1"><path d="M109.43 26.31a23.21 23.21 0 012.78-.44c.92-.08 1.81-.13 2.66-.13s1.69.05 2.63.13a20.74 20.74 0 012.75.44v32.6a25.51 25.51 0 01-3 .41c-.9.07-1.69.1-2.37.1s-1.54 0-2.43-.1a25.51 25.51 0 01-3-.41zm19.4 0a23.36 23.36 0 012.82-.38c1.11-.08 2.09-.12 2.95-.12q1.67 0 3.36.12a18.86 18.86 0 012.72.38l-7.94 15.2 8.84 17.4a20.09 20.09 0 01-2.88.38c-1.16.09-2.16.13-3 .13-1.12 0-2.21 0-3.3-.13a14.73 14.73 0 01-2.6-.38l-8.52-17zm15.63 22.03a9.16 9.16 0 011.34-5.13 10.07 10.07 0 013.46-3.21 14.75 14.75 0 014.68-1.68 27.08 27.08 0 015-.48h3.91a3.34 3.34 0 00-.64-1.89 4 4 0 00-1.47-1.18 7.56 7.56 0 00-2-.57 16.42 16.42 0 00-2.24-.2 22 22 0 00-3.59.34 27.79 27.79 0 00-4.22 1.11c-.39-.72-.72-1.37-1-2a10.18 10.18 0 01-.64-1.8 14.77 14.77 0 01-.32-1.9q-.09-1-.09-2.25a41 41 0 016.11-1.52 33.53 33.53 0 015.48-.51 21.24 21.24 0 016 .8 12 12 0 014.58 2.43 10.74 10.74 0 012.93 4.3 16.31 16.31 0 011 6.11v18.54c-1.63.46-3.59.92-5.9 1.39a37.13 37.13 0 01-7.3.7 28.94 28.94 0 01-6.11-.61 13.53 13.53 0 01-4.77-1.93 9.11 9.11 0 01-3.11-3.51 11.6 11.6 0 01-1.09-5.35zm15.11 3.55c.39 0 .94 0 1.67-.13a14.46 14.46 0 001.6-.25v-7h-3.65a7.09 7.09 0 00-3.78 1 3 3 0 00-1.54 2.66 3.17 3.17 0 00.58 2 3.73 3.73 0 001.44 1.1 6.4 6.4 0 001.86.51 15.4 15.4 0 001.82.11zm21.01-25.45q3-.37 6.24-.63t6.12-.26q7.76 0 11.63 2.88a9.5 9.5 0 013.87 8.07 11.62 11.62 0 01-.45 3.42 10.74 10.74 0 01-1.09 2.5 7.48 7.48 0 01-1.34 1.68l-1.15 1 7.3 13.8a24.36 24.36 0 01-2.85.38c-1.05.09-2.06.13-3.05.13-1.19 0-2.34 0-3.46-.13a18 18 0 01-2.75-.38L192.49 44l.9-.5a8 8 0 003.07-2.69 5.93 5.93 0 00.84-3.07 3.74 3.74 0 00-1-2.69 4.19 4.19 0 00-3.17-1.05 9.58 9.58 0 00-1.85.13V59a26.29 26.29 0 01-3 .42q-1.35.09-2.37.09t-2.37-.09a26 26 0 01-2.95-.42zm34.14 21.9a9.08 9.08 0 011.34-5.13 10.07 10.07 0 013.46-3.21 14.78 14.78 0 014.67-1.68 27.18 27.18 0 015-.48h3.91a3.42 3.42 0 00-.64-1.89 3.9 3.9 0 00-1.46-1.19 7.49 7.49 0 00-2-.57 16.52 16.52 0 00-2.24-.15 21.93 21.93 0 00-3.59.34 27.6 27.6 0 00-4.23 1.11c-.38-.72-.71-1.37-1-2a9.44 9.44 0 01-.64-1.8 13.22 13.22 0 01-.32-1.9c-.06-.66-.1-1.41-.1-2.25a40.82 40.82 0 016.12-1.48 33.43 33.43 0 015.48-.51 21.24 21.24 0 016 .8 11.93 11.93 0 014.57 2.43A10.76 10.76 0 01242 33a16.53 16.53 0 011 6.11v18.54q-2.43.69-5.89 1.39a37.21 37.21 0 01-7.3.7 28.94 28.94 0 01-6.11-.61 13.66 13.66 0 01-4.78-1.93 9.08 9.08 0 01-3.1-3.51 11.6 11.6 0 01-1.1-5.35zm15.11 3.55c.39 0 .94 0 1.67-.13a14.88 14.88 0 001.6-.25v-7h-3.65a7.07 7.07 0 00-3.78 1 3 3 0 00-1.54 2.66 3.11 3.11 0 00.58 2 3.66 3.66 0 001.44 1.1 6.23 6.23 0 001.86.51 15.4 15.4 0 001.82.11zm21.01-25.58a22.9 22.9 0 012.78-.44c.92-.08 1.81-.13 2.66-.13s1.69.05 2.63.13a20.74 20.74 0 012.75.44v32.6a25.51 25.51 0 01-3 .41c-.9.07-1.69.1-2.37.1s-1.53 0-2.43-.1a25.51 25.51 0 01-3-.41zm19.4 0a23.36 23.36 0 012.82-.38c1.11-.08 2.09-.12 2.95-.12q1.67 0 3.36.12a18.86 18.86 0 012.72.38l-7.94 15.2 8.85 17.4a20.09 20.09 0 01-2.88.38c-1.16.09-2.16.13-3 .13-1.11 0-2.21 0-3.3-.13a14.73 14.73 0 01-2.6-.38l-8.51-17zm46.63 31.21c-.73.25-1.59.51-2.6.76s-2.07.5-3.2.73a35.29 35.29 0 01-3.49.53 32.66 32.66 0 01-3.52.2 37.58 37.58 0 01-6.28-.51 13 13 0 01-5.28-2.06 10.58 10.58 0 01-3.62-4.49 19.18 19.18 0 01-1.35-7.88V26.31a23.06 23.06 0 012.79-.44c.92-.08 1.8-.13 2.66-.13s1.68.05 2.62.13a20.89 20.89 0 012.76.44v17.6c0 2.53.42 4.26 1.28 5.19a5.05 5.05 0 003.91 1.39c.72 0 1.28 0 1.66-.06a5.17 5.17 0 00.83-.13v-24a23.06 23.06 0 012.79-.44c.92-.08 1.8-.13 2.66-.13s1.68.05 2.62.13a20.89 20.89 0 012.76.44zm21.58-31.84a33.56 33.56 0 015.64.48 12.92 12.92 0 015.09 2 11.17 11.17 0 013.71 4.37 16.77 16.77 0 011.44 7.53V59a25.7 25.7 0 01-3 .42c-.89.06-1.69.09-2.37.09s-1.54 0-2.43-.09a25.7 25.7 0 01-3-.42V41.19q0-3.36-1.28-4.81a5 5 0 00-3.91-1.46 9 9 0 00-1.5.13 3.29 3.29 0 00-1 .25V59a25.7 25.7 0 01-3 .42c-.89.06-1.69.09-2.37.09s-1.53 0-2.43-.09a25.7 25.7 0 01-3-.42V27.9a53.24 53.24 0 015.44-1.49 36.7 36.7 0 017.97-.73zM81 80L44.86 44.33 0 88.67h77.32A5.07 5.07 0 0081 80z" fill="#134361"/><path d="M0 0l25.93 14.87a5.06 5.06 0 012.17 6.33L0 88.67z" fill="#dedc00"/><path d="M77.32 0H0l25.93 14.87a5.06 5.06 0 012.17 6.33L0 88.67l81-80A5.07 5.07 0 0077.32 0z" fill="#86bd34"/></g></g></svg>